# xmcd CD database file
#
# Track frame offsets:
#	150
#	23037
#	41427
#	56687
#	74670
#	97587
#	116087
#	131340
#	149487
#
# Disc length: 2195 seconds
#
# Revision: 0
# Processed by: cddbd v1.5PL3 Copyright (c) Steve Scherf et al.
# Submitted via: CDex 1.50beta8
#
DISCID=7a089109
DTITLE=Various Artist - 美少女遊戯歌謡集１号
DYEAR=2000
DGENRE=Game
TTITLE0=友永朱音／My dear アレながおじさん
TTITLE1=伊藤瞳子・伊藤硝子／Fu-kin Hi-kin Everyday
TTITLE2=南ピル子／メイドさんロックンロール
TTITLE3=長田梢／オープンしてます!
TTITLE4=友永朱音／My dear アレながおじさん（カラオケ）
TTITLE5=伊藤瞳子・伊藤硝子／Fu-kin Hi-kin Everyday（カラオケ）
TTITLE6=南ピル子／メイドさんロックンロール（カラオケ）
TTITLE7=長田梢／オープンしてます!（カラオケ）
TTITLE8=南ピル子／メイドさんロックンロール（イングリッシュVer）
EXTD=YEAR: 2000
EXTT0=
EXTT1=
EXTT2=
EXTT3=
EXTT4=
EXTT5=
EXTT6=
EXTT7=
EXTT8=
PLAYORDER=
